<svg width="10" height="6" viewBox="0 0 10 6" fill="none" xmlns="http://www.w3.org/2000/svg">
<path d="M9.48003 4.75775L5.00003 0.122192L0.520029 4.75775C0.398324 4.88409 0.331795 5.05361 0.335077 5.22901C0.338359 5.40441 0.411183 5.57132 0.537529 5.69303C0.663875 5.81473 0.833394 5.88126 1.00879 5.87798C1.18419 5.8747 1.3511 5.80187 1.47281 5.67553L5.00003 2.02386L8.53114 5.67553C8.65285 5.80187 8.81976 5.8747 8.99516 5.87798C9.17055 5.88126 9.34007 5.81473 9.46642 5.69303C9.59276 5.57132 9.66559 5.40441 9.66887 5.22901C9.67215 5.05361 9.60562 4.88409 9.48392 4.75775H9.48003Z" fill="#CA1240"/>
</svg>
