<svg width="10" height="6" viewBox="0 0 10 6" fill="none" xmlns="http://www.w3.org/2000/svg">
<path d="M0.51997 1.24222L4.99997 5.87778L9.47997 1.24222C9.60168 1.11587 9.66821 0.946357 9.66492 0.770958C9.66164 0.59556 9.58882 0.428648 9.46247 0.306944C9.33612 0.185239 9.16661 0.11871 8.99121 0.121991C8.81581 0.125273 8.6489 0.198098 8.52719 0.324444L4.99997 3.97611L1.46886 0.324444C1.34715 0.198098 1.18024 0.125273 1.00484 0.121991C0.829446 0.11871 0.659927 0.185239 0.533581 0.306944C0.407235 0.428648 0.334411 0.59556 0.331128 0.770958C0.327847 0.946357 0.394376 1.11587 0.516081 1.24222H0.51997Z" fill="#CA1240"/>
</svg>
